<svg width="274" height="293" viewBox="0 0 274 293" fill="none" xmlns="http://www.w3.org/2000/svg">
<g filter="url(#filter0_dd_195_19)">
<rect width="174" height="234" rx="15" transform="matrix(0.963111 -0.240655 0.310284 0.958242 6.78384 61.8263)" fill="#09387E"/>
</g>
<g filter="url(#filter1_dd_195_19)">
<rect width="174" height="234" rx="15" transform="matrix(0.97803 -0.190175 0.259453 0.969523 26.0981 43.155)" fill="#0066B4"/>
</g>
<g filter="url(#filter2_dd_195_19)">
<rect width="174" height="234" rx="15" transform="matrix(0.990268 -0.139173 0.207912 0.978148 45.8771 24.4146)" fill="#ECECEC"/>
</g>
<path d="M139.532 129.14L166.372 142.578C166.372 142.578 180.453 119.137 185.861 113.72L183.047 107.231L190.567 109.819C188.758 104.201 183.953 97.9924 183.953 97.9924C186.71 94.5678 188.985 90.8059 186.645 79.7961C185.684 75.2742 182.959 77.8845 177.916 67.6595L181.383 67.5771C180.38 62.8586 175.544 57.464 175.544 57.464L178.804 52.5513L182.699 55.446C182.699 55.446 183.133 46.8809 179.941 42.4702C176.749 38.0594 159.635 32.7703 154.659 33.4697C149.683 34.169 145.949 43.6028 145.949 43.6028L135.798 45.0295C135.798 45.0295 130.585 37.8654 123.221 38.9004C115.06 40.0473 101.018 51.1324 99.3396 54.8103C97.6616 58.4883 101.019 67.5328 101.019 67.5328L104.604 63.1819L110.959 68.9705C106.062 77.7578 105.07 90.4508 109.546 103.793L114.502 101.071C113.274 105.901 114.516 114.635 117.571 121.293L123.04 118.094C126.169 124.134 133.298 131.636 139.068 134.672C138.891 132.875 139.532 129.14 139.532 129.14Z" fill="#09387E"/>
<path d="M129.208 47.778C123.883 53.5882 123.825 63.9227 119.098 69.649L108.073 59.2522C111.648 53.8904 121.31 47.2681 127.239 46.2323L129.208 47.778Z" fill="#0066B4"/>
<path d="M157.169 41.4185C166.753 43.1088 172.648 46.7348 174.742 48.8702L172.393 53.2499C168.687 49.3162 163.912 46.1402 155.083 44.1414L157.169 41.4185Z" fill="#0066B4"/>
<path d="M135.399 122.229C140.979 126.304 157.485 130.666 164.742 134.911C170.487 127.219 179.074 112.649 179.074 112.649C179.211 110.402 177.444 104.981 176.262 102.313L182.609 103.243C181.553 101.164 180.946 100.237 178.82 98.9163C176.694 97.5952 168.391 97.9916 163.349 98.4585C159.127 98.8493 153.618 98.0038 151.735 93.004C156.396 92.7538 156.144 95.4215 160.407 95.2273L174.549 94.2522C177.817 94.1978 183.601 90.5502 182.915 81.5352L181.325 77.9116C171.011 70.8571 176.724 63.9799 169.752 56.2533C165.532 51.5767 157.029 47.5125 150.063 48.4915L137.523 50.2538C133.941 50.7574 129.203 55.4727 129.975 61.0335C130.033 70.9469 124.049 74.6224 118.076 79.309C113.412 83.4065 111.304 87.9548 112.642 94.2461L116.728 92.2545C119.475 84.137 125.3 81.9562 133.066 79.4296C123.404 86.0519 116.851 96.6917 120.425 111.578L123.915 109.67C125.473 114.108 129.941 122.591 135.082 126.526L135.399 122.229Z" fill="#0066B4"/>
<path d="M144.045 113.725C152.406 128.951 158.638 130.302 164.7 134.714C174.05 124.694 175.683 108.266 170.753 101.467C166.75 103.852 163.595 107.333 163.551 110.984C154.953 108.142 150.861 101.428 151.735 93.004C157.765 96.3929 165.624 95.4872 174.296 94.4878L174.391 94.4768C182.395 93.5544 182.933 87.4046 183.07 85.158C183.207 82.9114 183.335 79.6539 181.524 77.8837C174.886 72.4568 160.722 76.3317 159.282 65.8238C158.165 57.6791 154.27 54.7844 152.177 52.649C150.083 50.5135 147.36 49.2764 146.05 49.8654C144.741 50.4544 146.044 53.3084 147.137 54.9771C149.647 58.8109 155.735 61.9996 157.176 66.5247C160.199 76.0212 150.374 81.6392 143.935 86.2036C136.305 92.7427 134.645 102.29 135.793 109.62C137.359 118.917 142.154 124.115 146.049 127.009C144.542 123.779 142.492 117.993 144.045 113.725Z" fill="#40C4FF"/>
<path d="M170.125 82.1179C170.793 85.2636 173.442 87.1185 178.02 86.4751C181.006 86.0555 183.259 84.119 182.308 80.6081C182.015 79.2319 180.843 77.5744 178.654 77.8821L172.682 78.7213C170.692 79.001 169.79 80.5451 170.125 82.1179Z" fill="#09387E"/>
<path d="M108.073 59.2522C107 60.375 105.313 62.3398 104.604 63.1819L105.609 64.0531C108.732 61.3869 110.289 60.0342 115.094 55.6334C119.898 51.2326 123.163 49.2349 127.962 46.7382L127.239 46.2323C118.052 48.3335 109.604 56.8099 108.073 59.2522Z" fill="black" fill-opacity="0.12"/>
<path d="M174.742 48.8702L178.804 52.5513L178.647 52.7759L174.668 49.488C171.213 46.734 164.978 43.4406 156.854 41.8677L157.169 41.4185C160.563 41.954 170.073 44.262 174.742 48.8702Z" fill="black" fill-opacity="0.12"/>
<path d="M144.939 67.2381C148.052 66.9303 151.59 69.9261 151.913 71.6646C152.236 73.4031 150.007 75.0234 146.692 75.4893C143.377 75.9551 140.768 73.2314 140.399 71.4992C140.031 69.767 141.825 67.5459 144.939 67.2381Z" fill="#09387E"/>
<path d="M144.939 67.2381C148.052 66.9303 151.59 69.9261 151.913 71.6646C152.236 73.4031 150.007 75.0234 146.692 75.4893C143.377 75.9551 140.768 73.2314 140.399 71.4992C140.031 69.767 141.825 67.5459 144.939 67.2381Z" stroke="#09387E"/>
<path d="M166.359 64.4832C167.856 63.3789 170.571 63.1038 171.509 63.739C172.446 64.3747 172.515 68.0563 170.805 69.3316C168.881 70.7663 165.713 70.4209 164.921 69.3898C164.128 68.3585 164.639 65.7514 166.359 64.4832Z" fill="#09387E"/>
<path d="M166.359 64.4832C167.856 63.3789 170.571 63.1038 171.509 63.739C172.446 64.3747 172.515 68.0563 170.805 69.3316C168.881 70.7663 165.713 70.4209 164.921 69.3898C164.128 68.3585 164.639 65.7514 166.359 64.4832Z" stroke="#09387E"/>
<circle cx="2.41195" cy="2.41195" r="2.41195" transform="matrix(0.990268 -0.139173 0.207912 0.978148 144.133 69.7752)" fill="#0066B4"/>
<path d="M170.573 66.8691C170.804 67.9549 170.1 68.9604 169.001 69.1149C167.901 69.2694 166.823 68.5144 166.592 67.4286C166.361 66.3427 167.066 65.3373 168.165 65.1828C169.264 65.0283 170.342 65.7833 170.573 66.8691Z" fill="#0066B4"/>
<g clip-path="url(#clip0_195_19)" filter="url(#filter3_i_195_19)">
<path d="M209.401 212.384L141.328 221.951C138.244 222.384 135.081 220.141 134.425 217.057L126.457 179.571C125.801 176.487 127.856 173.51 130.939 173.077L198.776 163.543C201.859 163.11 205.023 165.353 205.678 168.437L213.646 205.923C214.302 209.007 212.485 211.95 209.401 212.384ZM131.746 176.873C130.797 177.006 130.05 178.089 130.252 179.038L138.22 216.524C138.472 217.71 139.572 218.288 140.521 218.155L208.357 208.621C209.543 208.455 210.053 207.405 209.851 206.456L201.884 168.97C201.631 167.784 200.531 167.206 199.583 167.339L131.746 176.873ZM144.6 209.763L139.052 183.665L146.642 182.598L156.25 191.022L161.823 180.465L169.413 179.398L174.96 205.496L167.37 206.563L164.193 191.616L158.62 202.173L149.013 193.749L152.19 208.696L144.6 209.763ZM192.275 203.063L178.217 192.088L185.807 191.021L182.933 177.498L190.523 176.431L193.347 189.718L200.937 188.651L192.275 203.063Z" fill="#ACB3BF"/>
</g>
<defs>
<filter id="filter0_dd_195_19" x="0.802789" y="21.2123" width="244.15" height="271.583" filterUnits="userSpaceOnUse" color-interpolation-filters="sRGB">
<feFlood flood-opacity="0" result="BackgroundImageFix"/>
<feColorMatrix in="SourceAlpha" type="matrix" values="0 0 0 0 0 0 0 0 0 0 0 0 0 0 0 0 0 0 127 0" result="hardAlpha"/>
<feOffset dx="-4" dy="4"/>
<feGaussianBlur stdDeviation="2.95"/>
<feComposite in2="hardAlpha" operator="out"/>
<feColorMatrix type="matrix" values="0 0 0 0 0 0 0 0 0 0 0 0 0 0 0 0 0 0 0.25 0"/>
<feBlend mode="normal" in2="BackgroundImageFix" result="effect1_dropShadow_195_19"/>
<feColorMatrix in="SourceAlpha" type="matrix" values="0 0 0 0 0 0 0 0 0 0 0 0 0 0 0 0 0 0 127 0" result="hardAlpha"/>
<feOffset dx="-1.5" dy="1.5"/>
<feComposite in2="hardAlpha" operator="out"/>
<feColorMatrix type="matrix" values="0 0 0 0 0.0338345 0 0 0 0 0.190733 0 0 0 0 0.42441 0 0 0 1 0"/>
<feBlend mode="normal" in2="effect1_dropShadow_195_19" result="effect2_dropShadow_195_19"/>
<feBlend mode="normal" in="SourceGraphic" in2="effect2_dropShadow_195_19" result="shape"/>
</filter>
<filter id="filter1_dd_195_19" x="21.5787" y="10.7373" width="235.928" height="266.613" filterUnits="userSpaceOnUse" color-interpolation-filters="sRGB">
<feFlood flood-opacity="0" result="BackgroundImageFix"/>
<feColorMatrix in="SourceAlpha" type="matrix" values="0 0 0 0 0 0 0 0 0 0 0 0 0 0 0 0 0 0 127 0" result="hardAlpha"/>
<feOffset dx="-2" dy="4"/>
<feGaussianBlur stdDeviation="2.95"/>
<feComposite in2="hardAlpha" operator="out"/>
<feColorMatrix type="matrix" values="0 0 0 0 0 0 0 0 0 0 0 0 0 0 0 0 0 0 0.25 0"/>
<feBlend mode="normal" in2="BackgroundImageFix" result="effect1_dropShadow_195_19"/>
<feColorMatrix in="SourceAlpha" type="matrix" values="0 0 0 0 0 0 0 0 0 0 0 0 0 0 0 0 0 0 127 0" result="hardAlpha"/>
<feOffset dx="-1.5" dy="1.5"/>
<feComposite in2="hardAlpha" operator="out"/>
<feColorMatrix type="matrix" values="0 0 0 0 0 0 0 0 0 0.326973 0 0 0 0 0.613075 0 0 0 1 0"/>
<feBlend mode="normal" in2="effect1_dropShadow_195_19" result="effect2_dropShadow_195_19"/>
<feBlend mode="normal" in="SourceGraphic" in2="effect2_dropShadow_195_19" result="shape"/>
</filter>
<filter id="filter2_dd_195_19" x="40.6688" y="0.136482" width="227.374" height="261.227" filterUnits="userSpaceOnUse" color-interpolation-filters="sRGB">
<feFlood flood-opacity="0" result="BackgroundImageFix"/>
<feColorMatrix in="SourceAlpha" type="matrix" values="0 0 0 0 0 0 0 0 0 0 0 0 0 0 0 0 0 0 127 0" result="hardAlpha"/>
<feOffset dx="-2" dy="4"/>
<feGaussianBlur stdDeviation="3"/>
<feComposite in2="hardAlpha" operator="out"/>
<feColorMatrix type="matrix" values="0 0 0 0 0 0 0 0 0 0 0 0 0 0 0 0 0 0 0.25 0"/>
<feBlend mode="normal" in2="BackgroundImageFix" result="effect1_dropShadow_195_19"/>
<feColorMatrix in="SourceAlpha" type="matrix" values="0 0 0 0 0 0 0 0 0 0 0 0 0 0 0 0 0 0 127 0" result="hardAlpha"/>
<feOffset dx="-1.5" dy="1.5"/>
<feComposite in2="hardAlpha" operator="out"/>
<feColorMatrix type="matrix" values="0 0 0 0 0.855356 0 0 0 0 0.851533 0 0 0 0 0.851533 0 0 0 1 0"/>
<feBlend mode="normal" in2="effect1_dropShadow_195_19" result="effect2_dropShadow_195_19"/>
<feBlend mode="normal" in="SourceGraphic" in2="effect2_dropShadow_195_19" result="shape"/>
</filter>
<filter id="filter3_i_195_19" x="125.247" y="162.743" width="89.617" height="61.0412" filterUnits="userSpaceOnUse" color-interpolation-filters="sRGB">
<feFlood flood-opacity="0" result="BackgroundImageFix"/>
<feBlend mode="normal" in="SourceGraphic" in2="BackgroundImageFix" result="shape"/>
<feColorMatrix in="SourceAlpha" type="matrix" values="0 0 0 0 0 0 0 0 0 0 0 0 0 0 0 0 0 0 127 0" result="hardAlpha"/>
<feOffset dy="1"/>
<feGaussianBlur stdDeviation="2"/>
<feComposite in2="hardAlpha" operator="arithmetic" k2="-1" k3="1"/>
<feColorMatrix type="matrix" values="0 0 0 0 0 0 0 0 0 0 0 0 0 0 0 0 0 0 0.21 0"/>
<feBlend mode="normal" in2="shape" result="effect1_innerShadow_195_19"/>
</filter>
<clipPath id="clip0_195_19">
<rect width="80" height="50" fill="white" transform="matrix(0.990268 -0.139173 0.207912 0.978148 125.247 173.877)"/>
</clipPath>
</defs>
</svg>
