<svg width="40" height="49" viewBox="0 0 40 49" fill="none" xmlns="http://www.w3.org/2000/svg">
<path d="M14.5049 39C14.5049 39 18.7369 43.5674 22.7937 47L30.5 37.5L33 39C36.5 33 32.4674 29.5248 32.4674 29.5248C36.8362 28.9007 35.9001 22.3475 35.9001 22.3475C33.7157 19.8511 33.4036 17.3546 33.7157 15.7943C34.0049 14.5 33.5461 13.1572 33.0915 12.3617L35.9001 9.24113L38.0049 9.5C38.0049 4.5 29.941 2 29.0049 2C28.0687 2 25.6022 3.93617 24.9781 6.12057L17.4887 6.74468C16.5049 -4 1.6928 7.87943 2.00486 11L4.50486 10L7.81494 14.5461C2.82204 18.2908 2.00486 26.5 2.00486 26.5L6.25466 25.7801C4.07026 30.1489 4.69438 35.1418 4.69438 35.1418L8.50488 33.5C8.81694 37.5567 12.0049 42 12.0049 42L14.5049 39Z" stroke="black" stroke-width="4" stroke-linejoin="round"/>
<path d="M17.4887 6.74469C15.9284 6.74469 15.0049 8.00002 12.5049 11C10.0049 14 11.2476 13.6099 6.87878 15.1702" stroke="black" stroke-width="4" stroke-linejoin="round"/>
<path d="M24.978 6.12057C27.4745 6.74469 30.9071 8.61703 33.0915 12.3617" stroke="black" stroke-width="4" stroke-linejoin="round"/>
<path d="M6.25464 25.7802C6.25464 25.7802 8.12698 22.3475 12.1837 20.4752C7.81492 22.3475 6.25464 25.7802 6.25464 25.7802Z" stroke="black" stroke-width="4" stroke-linejoin="round"/>
<path d="M30.6956 22.0591C30.6956 22.0591 26.9509 21.435 27.575 24.2435C28.3379 27.6761 33.5041 26.1158 33.1921 23.9314C33.1921 22.0591 30.6956 22.0591 30.6956 22.0591Z" fill="black"/>
<path d="M32.7795 29.5248C29.971 29.5248 24.5049 30 21.5049 28C25 31 35 27 34 36C35 32 33.0049 30.5 32.7795 29.5248Z" stroke="black" stroke-width="4" stroke-linejoin="round"/>
</svg>
