<svg width="79" height="104" viewBox="0 0 79 104" fill="none" xmlns="http://www.w3.org/2000/svg">
<path fill-rule="evenodd" clip-rule="evenodd" d="M23.8236 87.3328L45.9404 103.401C45.9404 103.401 63.5204 83.3631 69.5694 79.0154L68.2462 72.5883L74.6733 75.9909C74.1062 70.509 70.8926 64.0819 70.8926 64.0819C74.1062 61.2464 76.9417 58.0328 76.9417 47.447C76.9417 45.5421 76.361 44.871 75.4859 43.8595C74.3638 42.5626 72.7576 40.7061 71.2707 34.9709L74.4842 35.349C74.4842 30.8122 71.0817 25.1413 71.0817 25.1413L75.0513 20.9826L78.0758 24.1961C78.0758 24.1961 80.1552 16.2568 78.0758 11.72C75.9965 7.18322 61.252 0 56.5262 0C51.8004 0 46.5075 8.31741 46.5075 8.31741H36.8668C36.8668 8.31741 33.4643 0.94516 26.4701 0.94516C18.7198 0.94516 3.59721 9.4516 1.32883 12.6651C-0.939557 15.8787 0.383643 24.7632 0.383643 24.7632L4.54235 21.1716L9.26815 27.4096C3.03009 34.9709 -0.372485 46.6909 1.13977 59.7341L6.24363 57.8438C4.16428 62.1915 3.59719 70.509 5.10944 77.1251L10.7804 74.8567C12.4817 80.9057 17.5856 88.8451 22.3114 92.4367C22.5004 90.7354 23.8236 87.3328 23.8236 87.3328ZM57.2823 7.75031C65.7888 10.5858 70.5146 14.7445 72.0268 17.0129L69.0023 20.7935C66.3559 16.6348 62.5752 13.0432 54.8249 10.0187L57.2823 7.75031ZM30.2507 10.0187C27.0915 12.4868 25.0151 16.2956 22.9712 20.0447C21.1016 23.4739 19.2593 26.8533 16.6404 29.1109L8.51205 17.958C12.8598 13.4213 23.0675 8.50643 28.7385 8.3174L30.2507 10.0187ZM31.0069 73.5335C34.7805 85.76 39.0362 89.5493 43.0041 93.0823L43.0042 93.0824L43.0042 93.0824C44.0054 93.9739 44.9882 94.849 45.9404 95.8392C56.5262 87.7109 61.252 72.5883 58.0384 65.5941C53.8797 67.2954 50.2881 70.1309 49.532 73.5335C42.1598 69.7528 39.7023 62.9477 42.1598 55.1974C47.0566 59.1525 54.4814 59.3381 62.6739 59.5428L62.7642 59.5451C70.3255 59.7341 72.0268 54.0632 72.5939 51.9838C73.161 49.9045 73.9171 46.88 72.5939 44.9896C70.6223 42.6751 67.3191 41.5302 64.0654 40.4024C58.9723 38.6369 54.0004 36.9136 54.4468 30.8122C54.9514 23.9169 52.613 20.6125 51.026 18.37C50.8292 18.0919 50.644 17.8302 50.4772 17.58C48.9649 15.3116 46.6965 13.7993 45.3733 14.1774C44.0501 14.5555 44.6928 17.3909 45.3733 19.0922C46.0171 20.7018 47.2418 22.2887 48.4907 23.907C50.2746 26.2187 52.1079 28.5941 52.3675 31.1903C53.209 39.6053 44.8993 43.6403 38.248 46.8701L38.2475 46.8703C37.5778 47.1955 36.9249 47.5126 36.2998 47.8251C27.9824 52.929 24.5798 61.6244 24.2017 68.6186C23.8237 77.5031 27.2262 82.9851 30.2507 86.1986C29.4946 82.9851 28.7385 77.3141 31.0069 73.5335ZM67.679 52.5509C63.3313 52.5509 61.252 50.4716 61.252 47.4471C61.252 45.9348 62.3861 44.6116 64.2765 44.6116H69.9474C72.0268 44.6116 72.7829 46.3129 72.7829 47.6361C72.9719 51.0387 70.5145 52.5509 67.679 52.5509ZM40.943 30.2508C38.0116 30.1297 35.9217 31.9675 35.9217 33.6329C35.9217 35.2984 37.7945 38.1845 40.943 38.1845C44.0914 38.1845 46.4643 36.9639 46.507 35.2984C46.5497 33.633 43.8743 30.3719 40.943 30.2508ZM58.9483 34.8808C58.4197 33.814 59.4015 31.4473 61.2357 30.489C62.8331 29.6544 65.3905 29.7541 66.1304 30.4701C66.8704 31.1862 66.2128 34.6322 64.3856 35.5985C62.3299 36.6856 59.4768 35.9477 58.9483 34.8808Z" fill="black"/>
<circle cx="41.9707" cy="34.7819" r="2.26838" fill="black"/>
<path d="M64.6545 33.2697C64.6545 34.3136 63.8082 35.16 62.7642 35.16C61.7202 35.16 60.8739 34.3136 60.8739 33.2697C60.8739 32.2257 61.7202 31.3793 62.7642 31.3793C63.8082 31.3793 64.6545 32.2257 64.6545 33.2697Z" fill="black"/>
</svg>
