<svg width="217" height="283" viewBox="0 0 217 283" fill="none" xmlns="http://www.w3.org/2000/svg">
<path d="M125.515 277.5C127.018 278.819 127.018 278.819 127.019 278.819L127.02 278.817L127.026 278.81L127.051 278.781L127.151 278.668C127.239 278.568 127.37 278.419 127.542 278.224C127.885 277.834 128.391 277.26 129.042 276.526C130.342 275.057 132.219 272.944 134.52 270.373C139.125 265.23 145.429 258.255 152.231 250.923C159.035 243.588 166.328 235.906 172.911 229.346C179.525 222.756 185.328 217.394 189.182 214.624L190.235 213.867L189.974 212.597L187.329 199.753L200.579 206.768L203.89 208.52L203.504 204.794C202.727 197.286 200.155 189.22 197.821 183.1C196.648 180.025 195.523 177.409 194.69 175.561C194.415 174.95 194.171 174.423 193.968 173.99C197.9 170.422 201.689 166.347 204.528 160.005C207.621 153.095 209.515 143.663 209.515 129.5C209.515 126.365 208.963 124.196 207.897 122.306C207.143 120.968 206.109 119.775 205.081 118.589C204.776 118.236 204.471 117.884 204.174 117.529C201.706 114.579 198.42 109.991 195.223 98.8324L200.781 99.4863L203.015 99.7491V97.5C203.015 91.0826 200.631 84.0268 198.353 78.7122C197.202 76.0259 196.052 73.7257 195.189 72.0955C194.927 71.6015 194.692 71.1682 194.49 70.8037L202.505 62.4073L209.058 69.3707L211.534 72.0014L212.45 68.5067L210.515 68C212.45 68.5067 212.45 68.5063 212.45 68.5057L212.45 68.5043L212.451 68.5L212.455 68.4856L212.468 68.4342C212.473 68.4156 212.479 68.3936 212.485 68.3681C212.494 68.333 212.504 68.2914 212.516 68.2435C212.557 68.0781 212.616 67.8376 212.688 67.5293C212.832 66.9127 213.03 66.024 213.25 64.9221C213.688 62.7207 214.215 59.6561 214.567 56.2027C215.26 49.3999 215.321 40.6852 212.333 34.1667C210.733 30.6764 206.901 26.9847 202.246 23.4937C197.51 19.9416 191.629 16.3854 185.564 13.2262C179.494 10.0651 173.192 7.27674 167.595 5.27325C162.067 3.2944 157.008 2 153.515 2C149.824 2 146.21 3.61113 142.986 5.77731C139.736 7.95992 136.695 10.8327 134.106 13.6455C131.509 16.4667 129.32 19.2793 127.783 21.3822C127.013 22.4353 126.403 23.3146 125.985 23.9335C125.969 23.956 125.954 23.9782 125.94 24H102.739C102.444 23.453 102.038 22.7356 101.52 21.8997C100.336 19.9897 98.5553 17.44 96.1625 14.8834C91.392 9.78602 84.0258 4.5 74.0148 4.5C68.5756 4.5 61.9952 5.98171 55.1871 8.25107C48.3491 10.5304 41.1498 13.6495 34.4296 17.0253C27.7089 20.4015 21.4313 24.0526 16.4378 27.4107C11.5326 30.7094 7.61681 33.8874 5.88089 36.3466C4.11303 38.8511 3.14739 42.2807 2.61557 45.7859C2.07684 49.3366 1.95151 53.1933 2.01511 56.7235C2.07886 60.2621 2.33357 63.5222 2.57163 65.895C2.69081 67.0828 2.80618 68.0518 2.89212 68.7264C2.93511 69.0638 2.97076 69.3277 2.99589 69.5089C3.00846 69.5994 3.0184 69.6693 3.02531 69.7173L3.03336 69.7728L3.03559 69.788L3.03624 69.7924L3.03645 69.7938C3.03652 69.7942 3.03658 69.7946 5.01476 69.5L3.03658 69.7946L3.57186 73.3888L6.322 71.0136L15.7082 62.9074L25.9752 76.4598C9.71465 96.9682 1.05656 127.976 5.02806 162.23L5.32135 164.76L7.70938 163.876L16.977 160.443C15.0896 166.003 13.9026 172.882 13.456 180.127C12.8835 189.414 13.5165 199.483 15.565 208.446L16.0862 210.726L18.2575 209.857L31.2294 204.668C33.6981 212.385 37.9858 220.95 43.0893 228.78C48.6609 237.327 55.3074 245.154 61.8046 250.092L64.613 252.227L65.0025 248.721C65.2261 246.709 66.1575 243.521 67.0996 240.695C67.4075 239.771 67.7089 238.908 67.9737 238.169L124.339 279.118L125.815 280.19L127.018 278.819L125.515 277.5Z" fill="#09387E" stroke="white" stroke-width="4"/>
<path d="M84.0149 30.5C68.0149 43 62.5149 68.5 48.0149 81L26.5149 51.5C38.0149 39.5 65.0149 26.5 80.0149 26L84.0149 30.5Z" fill="#0066B4"/>
<path d="M155.515 24.5C178.015 32 190.515 43 194.515 49L186.515 59C179.515 48 169.515 38.5 149.015 30.5L155.515 24.5Z" fill="#0066B4"/>
<path d="M60.5148 216.5C72.0148 228.5 110.015 245 125.515 258C143.515 241 172.015 208 172.015 208C173.515 202.5 172.015 188.5 170.515 181.5L185.515 186C184.015 180.5 183.015 178 178.515 174C174.015 170 153.557 168.097 141.015 167.5C130.515 167 117.515 163 115.515 150C127.015 151 125.015 157.5 135.515 158.5L170.515 161C178.515 162 194.515 155 197.515 132.5L195.515 123C174.015 102 191.515 87 178.515 65.5C170.646 52.487 152.015 39.5 134.515 39.5H103.015C94.0148 39.5 80.0148 49.5 79.0148 63.5C74.0148 88 57.5148 95 40.5148 104.5C27.0148 113 19.5148 123.5 19.5148 139.5L30.5148 136C41.4246 116.908 56.7627 113.544 77.0148 110C50.0148 123 28.5148 147 29.5148 185L39.0148 181.5C40.5148 193 47.0148 215.5 57.5148 227L60.5148 216.5Z" fill="#0066B4"/>
<path d="M86.0149 198.5C98.5149 239 113.015 244.5 125.515 257.5C153.515 236 166.015 196 157.515 177.5C146.515 182 137.015 189.5 135.015 198.5C115.515 188.5 109.015 170.5 115.515 150C128.467 160.462 148.106 160.952 169.776 161.494L170.015 161.5C190.015 162 194.515 147 196.015 141.5C197.515 136 199.515 128 196.015 123C182.637 107.295 146.08 111.948 148.015 85.5C149.515 65 141.515 56.5 137.515 50.5C133.515 44.5 127.515 40.5 124.015 41.5C120.515 42.5 122.215 50 124.015 54.5C128.15 64.8386 141.347 74.8257 142.515 86.5C144.965 111 118.088 121.463 100.015 130.5C78.0149 144 69.0149 167 68.0149 185.5C67.0149 209 76.0149 223.5 84.0149 232C82.0149 223.5 80.0149 208.5 86.0149 198.5Z" fill="#40C4FF"/>
<path d="M166.015 129.5C166.015 137.5 171.515 143 183.015 143C190.515 143 197.015 139 196.515 130C196.515 126.5 194.515 122 189.015 122H174.015C169.015 122 166.015 125.5 166.015 129.5Z" fill="#09387E"/>
<path d="M26.5148 51.5C23.3148 53.9 18.1815 58.1667 16.0148 60L18.0148 62.5C27.0148 57 31.5148 54.2 45.5148 45C59.5148 35.8 68.5148 32 81.5148 27.5L80.0148 26C56.5148 28 31.5148 46 26.5148 51.5Z" fill="black" fill-opacity="0.12"/>
<path d="M194.515 49L202.515 59.5L202.015 60L194.015 50.5C187.015 42.5 173.515 32.2035 154.515 25.5L155.515 24.5C163.515 27 185.515 36 194.515 49Z" fill="black" fill-opacity="0.12"/>
<path d="M112.296 84.015C104.543 83.6946 99.0149 88.5557 99.0149 92.961C99.0149 97.3663 103.969 105 112.296 105C120.624 105 126.901 101.772 127.014 97.3663C127.126 92.961 120.05 84.3354 112.296 84.015Z" fill="#09387E"/>
<path d="M165.972 84.645C161.12 87.1798 158.523 93.44 159.921 96.2618C161.319 99.0835 168.866 101.036 174.303 98.1601C179.136 95.6042 180.876 86.4891 178.918 84.5952C176.961 82.7013 170.197 82.4376 165.972 84.645Z" fill="#09387E"/>
<circle cx="115.015" cy="96" r="6" fill="#0066B4"/>
<path d="M175.015 92C175.015 94.7614 172.776 97 170.015 97C167.253 97 165.015 94.7614 165.015 92C165.015 89.2386 167.253 87 170.015 87C172.776 87 175.015 89.2386 175.015 92Z" fill="#0066B4"/>
</svg>
