<svg width="41" height="49" viewBox="0 0 41 49" fill="none" xmlns="http://www.w3.org/2000/svg">
<path d="M15 39C15 39 19.2321 43.5674 23.2888 47L32.9625 36.5L35.5 38C36.5 33 32.9625 29.5248 32.9625 29.5248C37.3313 28.9007 36.3952 22.3475 36.3952 22.3475C34.2108 19.8511 33.8987 17.3546 34.2108 15.7943C34.5 14.5 34.0412 13.1572 33.5867 12.3617L36.3952 9.24113L38.5 9.5C38.5 4.5 30.4361 2 29.5 2C28.5638 2 26.0973 3.93617 25.4732 6.12057L17.9838 6.74468C17 -4 2.18791 7.87943 2.49998 11L4.99997 10L8.31006 14.5461C3.31715 18.2908 2.49997 26.5 2.49997 26.5L6.74978 25.7801C4.56538 30.1489 5.18949 35.1418 5.18949 35.1418L9 33.5C9.31206 37.5567 12.5 42 12.5 42L15 39Z" stroke="black" stroke-width="4" stroke-linejoin="round"/>
<path d="M17.9838 6.74467C16.4235 6.74467 15.5 8 13 11C10.5 14 11.7427 13.6099 7.37387 15.1702" stroke="black" stroke-width="4" stroke-linejoin="round"/>
<path d="M25.4732 6.12057C27.9696 6.74469 31.4023 8.61703 33.5866 12.3617" stroke="black" stroke-width="4" stroke-linejoin="round"/>
<path d="M6.74979 25.7802C6.74979 25.7802 8.62213 22.3475 12.6789 20.4752C8.31007 22.3475 6.74979 25.7802 6.74979 25.7802Z" stroke="black" stroke-width="4" stroke-linejoin="round"/>
<path d="M31.1907 22.0591C31.1907 22.0591 27.446 21.435 28.0701 24.2435C28.8329 27.6761 33.9992 26.1158 33.6872 23.9314C33.6872 22.0591 31.1907 22.0591 31.1907 22.0591Z" fill="black"/>
<path d="M33.2746 29.5248C30.4661 29.5248 25 30 22 28C27.5 31.5 33 28.5 35.5 34.5C34.5 31 33.5 30.5 33.2746 29.5248Z" stroke="black" stroke-width="4" stroke-linejoin="round"/>
</svg>
